<svg width="26" height="21" viewBox="0 0 26 21" fill="none" xmlns="http://www.w3.org/2000/svg">
<path d="M21.125 18H14.25V6.48633C15.0477 6.13711 15.6602 5.46211 15.9445 4.63203L21.1008 2.90313C21.4281 2.79336 21.6043 2.43906 21.4945 2.11172L21.0973 0.926562C20.9875 0.599219 20.6332 0.423047 20.3059 0.532812L15.6996 2.07695C15.1602 1.13906 14.1598 0.5 13 0.5C11.2742 0.5 9.875 1.89922 9.875 3.625C9.875 3.75898 9.89805 3.88711 9.91445 4.0168L4.89922 5.69844C4.57188 5.8082 4.3957 6.1625 4.50547 6.48984L4.90273 7.675C5.0125 8.00234 5.3668 8.17852 5.69414 8.06875L11.243 6.2082C11.402 6.31641 11.5723 6.4082 11.7504 6.48633V19.875C11.7504 20.2203 12.0301 20.5 12.3754 20.5H21.1254C21.4707 20.5 21.7504 20.2203 21.7504 19.875V18.625C21.75 18.2797 21.4703 18 21.125 18ZM25.4992 12.375C25.4992 11.743 25.5516 12.034 22.177 5.28477C21.4875 3.90625 19.5133 3.90352 18.8227 5.28477C15.4195 12.0918 15.5008 11.7629 15.5008 12.375H15.5C15.5 14.1008 17.7387 15.5 20.5 15.5C23.2613 15.5 25.5 14.1008 25.5 12.375H25.4992ZM17.6875 11.75L20.5 6.125L23.3125 11.75H17.6875ZM7.17695 10.2848C6.4875 8.90625 4.51328 8.90352 3.82266 10.2848C0.419531 17.0918 0.500781 16.7629 0.500781 17.375H0.5C0.5 19.1008 2.73867 20.5 5.5 20.5C8.26133 20.5 10.5 19.1008 10.5 17.375H10.4992C10.4992 16.743 10.5516 17.034 7.17695 10.2848ZM2.6875 16.75L5.5 11.125L8.3125 16.75H2.6875Z" fill="white"/>
</svg>
