<svg width="22" height="25" viewBox="0 0 22 25" fill="none" xmlns="http://www.w3.org/2000/svg">
<path d="M21.3516 7.8125H0.648438C0.324854 7.8125 0.0625 7.55015 0.0625 7.22656V5.46875C0.0625 4.17432 1.11182 3.125 2.40625 3.125H4.75V0.585938C4.75 0.262354 5.01235 0 5.33594 0H7.28906C7.61265 0 7.875 0.262354 7.875 0.585938V3.125H14.125V0.585938C14.125 0.262354 14.3874 0 14.7109 0H16.6641C16.9876 0 17.25 0.262354 17.25 0.585938V3.125H19.5938C20.8882 3.125 21.9375 4.17432 21.9375 5.46875V7.22656C21.9375 7.55015 21.6751 7.8125 21.3516 7.8125ZM0.648438 9.375H21.3516C21.6751 9.375 21.9375 9.63735 21.9375 9.96094V22.6562C21.9375 23.9507 20.8882 25 19.5938 25H2.40625C1.11182 25 0.0625 23.9507 0.0625 22.6562V9.96094C0.0625 9.63735 0.324854 9.375 0.648438 9.375ZM16.9227 14.0599L15.5472 12.6733C15.3193 12.4436 14.9483 12.442 14.7186 12.67L9.54102 17.8059L7.2959 15.5426C7.06802 15.3129 6.69697 15.3114 6.46724 15.5393L5.08066 16.9148C4.85093 17.1427 4.84941 17.5137 5.07734 17.7434L9.1106 21.8093C9.33848 22.039 9.70947 22.0405 9.93921 21.8126L16.9193 14.8885C17.1491 14.6606 17.1506 14.2896 16.9227 14.0599Z" fill="white"/>
</svg>
