<svg width="26" height="23" viewBox="0 0 26 23" fill="none" xmlns="http://www.w3.org/2000/svg">
<path d="M6.75 22.4375H19.25V2.90625C19.25 1.6123 18.2002 0.5625 16.9062 0.5625H9.09375C7.7998 0.5625 6.75 1.6123 6.75 2.90625V22.4375ZM9.875 3.6875H16.125V5.25H9.875V3.6875ZM25.5 7.59375V20.0938C25.5 21.3877 24.4502 22.4375 23.1562 22.4375H20.8125V5.25H23.1562C24.4502 5.25 25.5 6.2998 25.5 7.59375ZM5.1875 22.4375H2.84375C1.5498 22.4375 0.5 21.3877 0.5 20.0938V7.59375C0.5 6.2998 1.5498 5.25 2.84375 5.25H5.1875V22.4375Z" fill="white"/>
</svg>
